# Blender v2.74 (sub 0) OBJ File: 'robot.blend'
# www.blender.org
o Icosphere
v 0.388911 3.513086 0.163344
v 0.493110 3.592687 0.239048
v 0.349111 3.592687 0.285837
v 0.260113 3.592687 0.163344
v 0.349111 3.592687 0.040850
v 0.493110 3.592687 0.087639
v 0.428710 3.721486 0.285837
v 0.284711 3.721486 0.239048
v 0.284711 3.721486 0.087639
v 0.428710 3.721486 0.040850
v 0.517708 3.721485 0.163344
v 0.388911 3.801086 0.163344
v 0.365517 3.534592 0.235343
v 0.450157 3.534592 0.207841
v 0.426764 3.581380 0.279842
v 0.511404 3.581380 0.163344
v 0.450157 3.534592 0.118846
v 0.313205 3.534593 0.163344
v 0.289811 3.581380 0.235343
v 0.365517 3.534592 0.091345
v 0.289811 3.581380 0.091344
v 0.426764 3.581380 0.046846
v 0.525863 3.657086 0.207842
v 0.525863 3.657086 0.118846
v 0.388911 3.657086 0.307344
v 0.473552 3.657086 0.279842
v 0.251958 3.657086 0.207842
v 0.304269 3.657086 0.279842
v 0.304269 3.657086 0.046845
v 0.251958 3.657086 0.118846
v 0.473552 3.657086 0.046845
v 0.388911 3.657086 0.019344
v 0.488010 3.732792 0.235343
v 0.351057 3.732793 0.279842
v 0.266417 3.732792 0.163344
v 0.351057 3.732793 0.046846
v 0.488010 3.732792 0.091344
v 0.412304 3.779581 0.235343
v 0.464616 3.779580 0.163344
v 0.327664 3.779581 0.207841
v 0.327664 3.779581 0.118846
v 0.412304 3.779581 0.091345
vt 0.248707 0.844099
vt 0.193936 0.680686
vt 0.324993 0.713788
vt 0.127333 0.543157
vt 0.047750 0.680684
vt 0.331147 0.911137
vt 0.203892 1.000000
vt 0.119092 0.857572
vt 0.017115 0.536898
vt 0.443639 0.442899
vt 0.404492 0.536898
vt 0.335396 0.370986
vt 0.661592 0.268450
vt 0.558994 0.370988
vt 0.558994 0.165910
vt 0.751450 0.153584
vt 0.881332 0.146536
vt 0.801977 0.319609
vt 0.108244 0.442900
vt 0.000001 0.370991
vt 0.095488 0.268450
vt 0.797299 0.997247
vt 0.714222 0.863745
vt 0.860317 0.856507
vt 0.430883 0.268448
vt 0.670791 0.102540
vt 0.671855 0.280037
vt 0.223598 0.370988
vt 0.910844 0.690482
vt 0.780962 0.683434
vt 0.862040 0.536898
vt 0.662294 0.844097
vt 0.604589 1.000000
vt 0.543201 0.857572
vt 0.534961 0.543157
vt 0.614544 0.680684
vt 0.468358 0.680686
vt 0.108243 0.093999
vt 0.069096 0.000000
vt 0.207286 0.000000
vt 0.326196 0.268448
vt 0.223598 0.165910
vt 0.335396 0.102538
vt 0.337301 0.713789
vt 0.413586 0.844099
vt 0.408642 0.536899
vt 0.458402 1.000000
vt 0.991503 0.619404
vt 0.715946 0.544137
vt 0.662294 0.702798
vt 0.000000 0.165912
vt 0.738596 0.460349
vt 0.864995 0.460349
vt 0.645178 0.536898
vt 0.542681 0.000000
vt 0.443639 0.093998
vt 0.335396 0.165907
vt 0.990438 0.816935
vt 0.670791 0.082506
vt 0.948072 0.326848
vt 1.000000 0.165900
vt 0.923698 0.997247
vt 0.335396 0.434358
vt 0.207286 0.536898
vt 0.057705 1.000000
vt 0.000000 0.844097
vt 0.800254 0.000000
vt 0.946348 0.007240
vt 0.670791 0.434359
vt 0.542682 0.536898
vt 0.253651 0.536899
vn 0.102400 -0.943500 0.315100
vn 0.700200 -0.661700 0.268000
vn -0.268000 -0.943500 0.194700
vn -0.268000 -0.943500 -0.194700
vn 0.102400 -0.943500 -0.315100
vn 0.905000 -0.330400 0.268000
vn 0.024700 -0.330400 0.943500
vn -0.889700 -0.330400 0.315100
vn -0.574600 -0.330400 -0.748800
vn 0.534600 -0.330400 -0.777900
vn 0.802600 -0.125600 0.583100
vn -0.306600 -0.125600 0.943500
vn -0.992100 -0.125600 0.000000
vn -0.306600 -0.125600 -0.943500
vn 0.802600 -0.125600 -0.583100
vn 0.408900 0.661700 0.628400
vn -0.471300 0.661700 0.583100
vn -0.700200 0.661700 -0.268000
vn 0.038500 0.661700 -0.748800
vn 0.724000 0.661700 -0.194700
vn 0.268000 0.943500 -0.194700
vn 0.491100 0.794700 -0.356800
vn 0.408900 0.661700 -0.628400
vn -0.102400 0.943500 -0.315100
vn -0.187600 0.794700 -0.577300
vn -0.471300 0.661700 -0.583100
vn -0.331300 0.943500 0.000000
vn -0.607100 0.794700 0.000000
vn -0.700200 0.661700 0.268000
vn -0.102400 0.943500 0.315100
vn -0.187600 0.794700 0.577300
vn 0.038500 0.661700 0.748800
vn 0.268000 0.943500 0.194700
vn 0.491100 0.794700 0.356800
vn 0.724000 0.661700 0.194700
vn 0.889700 0.330400 -0.315100
vn 0.794700 0.187600 -0.577300
vn 0.574600 0.330400 -0.748800
vn -0.024700 0.330400 -0.943500
vn -0.303500 0.187600 -0.934200
vn -0.534600 0.330400 -0.777900
vn -0.905000 0.330400 -0.268000
vn -0.982200 0.187600 0.000000
vn -0.905000 0.330400 0.268000
vn -0.534600 0.330400 0.777900
vn -0.303500 0.187600 0.934200
vn -0.024700 0.330400 0.943500
vn 0.574600 0.330400 0.748800
vn 0.794700 0.187600 0.577300
vn 0.889700 0.330400 0.315100
vn 0.306600 0.125600 -0.943500
vn 0.303500 -0.187600 -0.934200
vn 0.024700 -0.330400 -0.943500
vn -0.802600 0.125600 -0.583100
vn -0.794700 -0.187600 -0.577300
vn -0.889700 -0.330400 -0.315100
vn -0.802600 0.125600 0.583100
vn -0.794700 -0.187600 0.577300
vn -0.574600 -0.330400 0.748800
vn 0.306600 0.125600 0.943500
vn 0.303500 -0.187600 0.934200
vn 0.534600 -0.330400 0.777900
vn 0.992100 0.125600 0.000000
vn 0.982200 -0.187600 0.000000
vn 0.905000 -0.330400 -0.268000
vn 0.471300 -0.661700 -0.583100
vn 0.187600 -0.794700 -0.577300
vn -0.038500 -0.661700 -0.748800
vn -0.408900 -0.661700 -0.628400
vn -0.491100 -0.794700 -0.356800
vn -0.724000 -0.661700 -0.194700
vn -0.724000 -0.661700 0.194700
vn -0.491100 -0.794700 0.356800
vn -0.408900 -0.661700 0.628400
vn 0.700200 -0.661700 -0.268000
vn 0.607100 -0.794700 0.000000
vn 0.331300 -0.943500 0.000000
vn -0.038500 -0.661700 0.748800
vn 0.187600 -0.794700 0.577300
vn 0.471300 -0.661700 0.583100
s off
f 1/1/1 14/2/1 13/3/1
f 2/4/2 14/2/2 16/5/2
f 1/1/3 13/3/3 18/6/3
f 1/1/4 18/6/4 20/7/4
f 1/1/5 20/7/5 17/8/5
f 2/4/6 16/5/6 23/9/6
f 3/10/7 15/11/7 25/12/7
f 4/13/8 19/14/8 27/15/8
f 5/16/9 21/17/9 29/18/9
f 6/19/10 22/20/10 31/21/10
f 2/22/11 23/23/11 26/24/11
f 3/10/12 25/12/12 28/25/12
f 4/13/13 27/15/13 30/26/13
f 5/16/14 29/18/14 32/27/14
f 6/19/15 31/21/15 24/28/15
f 7/29/16 33/30/16 38/31/16
f 8/32/17 34/33/17 40/34/17
f 9/35/18 35/36/18 41/37/18
f 10/38/19 36/39/19 42/40/19
f 11/41/20 37/42/20 39/43/20
f 39/6/21 42/44/21 12/45/21
f 39/43/22 37/42/22 42/40/22
f 37/42/23 10/38/23 42/40/23
f 42/44/24 41/37/24 12/45/24
f 42/44/25 36/46/25 41/37/25
f 36/46/26 9/35/26 41/37/26
f 41/37/27 40/34/27 12/45/27
f 41/37/28 35/36/28 40/34/28
f 35/36/29 8/32/29 40/34/29
f 40/34/30 38/47/30 12/45/30
f 40/34/31 34/33/31 38/47/31
f 34/48/32 7/29/32 38/31/32
f 38/47/33 39/6/33 12/45/33
f 38/31/34 33/30/34 39/49/34
f 33/30/35 11/50/35 39/49/35
f 24/28/36 37/42/36 11/41/36
f 24/28/37 31/21/37 37/42/37
f 31/21/38 10/38/38 37/42/38
f 32/51/39 36/39/39 10/38/39
f 32/27/40 29/18/40 36/52/40
f 29/18/41 9/53/41 36/52/41
f 30/54/42 35/36/42 9/35/42
f 30/26/43 27/15/43 35/55/43
f 27/15/44 8/56/44 35/55/44
f 28/25/45 34/57/45 8/56/45
f 28/25/46 25/12/46 34/57/46
f 25/58/47 7/29/47 34/48/47
f 26/24/48 33/30/48 7/29/48
f 26/24/49 23/23/49 33/30/49
f 23/23/50 11/50/50 33/30/50
f 31/21/51 32/51/51 10/38/51
f 31/21/52 22/20/52 32/51/52
f 22/59/53 5/16/53 32/27/53
f 29/18/54 30/60/54 9/53/54
f 29/18/55 21/17/55 30/60/55
f 21/17/56 4/61/56 30/60/56
f 27/15/57 28/25/57 8/56/57
f 27/15/58 19/14/58 28/25/58
f 19/14/59 3/10/59 28/25/59
f 25/58/60 26/24/60 7/29/60
f 25/58/61 15/62/61 26/24/61
f 15/62/62 2/22/62 26/24/62
f 23/63/63 24/28/63 11/41/63
f 23/63/64 16/64/64 24/28/64
f 16/64/65 6/19/65 24/28/65
f 17/8/66 22/65/66 6/66/66
f 17/8/67 20/7/67 22/65/67
f 20/67/68 5/16/68 22/59/68
f 20/67/69 21/17/69 5/16/69
f 20/67/70 18/68/70 21/17/70
f 18/68/71 4/61/71 21/17/71
f 18/69/72 19/14/72 4/13/72
f 18/69/73 13/70/73 19/14/73
f 13/70/74 3/10/74 19/14/74
f 16/5/75 17/8/75 6/66/75
f 16/5/76 14/2/76 17/8/76
f 14/2/77 1/1/77 17/8/77
f 13/70/78 15/11/78 3/10/78
f 13/3/79 14/2/79 15/71/79
f 14/2/80 2/4/80 15/71/80
o Icosphere.001
v 0.388911 3.513086 -0.155590
v 0.493110 3.592687 -0.079886
v 0.349111 3.592687 -0.033097
v 0.260113 3.592687 -0.155590
v 0.349111 3.592687 -0.278084
v 0.493110 3.592687 -0.231295
v 0.428710 3.721486 -0.033097
v 0.284711 3.721486 -0.079886
v 0.284711 3.721486 -0.231295
v 0.428710 3.721486 -0.278084
v 0.517708 3.721485 -0.155590
v 0.388911 3.801086 -0.155590
v 0.365517 3.534592 -0.083591
v 0.450157 3.534592 -0.111093
v 0.426764 3.581380 -0.039093
v 0.511404 3.581380 -0.155590
v 0.450157 3.534592 -0.200088
v 0.313205 3.534593 -0.155590
v 0.289811 3.581380 -0.083591
v 0.365517 3.534592 -0.227590
v 0.289811 3.581380 -0.227590
v 0.426764 3.581380 -0.272088
v 0.525863 3.657086 -0.111093
v 0.525863 3.657086 -0.200088
v 0.388911 3.657086 -0.011590
v 0.473552 3.657086 -0.039092
v 0.251958 3.657086 -0.111093
v 0.304269 3.657086 -0.039092
v 0.304269 3.657086 -0.272089
v 0.251958 3.657086 -0.200088
v 0.473552 3.657086 -0.272089
v 0.388911 3.657086 -0.299590
v 0.488010 3.732792 -0.083591
v 0.351057 3.732793 -0.039093
v 0.266417 3.732792 -0.155590
v 0.351057 3.732793 -0.272088
v 0.488010 3.732792 -0.227590
v 0.412304 3.779581 -0.083591
v 0.464616 3.779580 -0.155590
v 0.327664 3.779581 -0.111093
v 0.327664 3.779581 -0.200088
v 0.412304 3.779581 -0.227590
vt 0.248707 0.844099
vt 0.193936 0.680686
vt 0.324993 0.713788
vt 0.127333 0.543157
vt 0.047750 0.680684
vt 0.331147 0.911137
vt 0.203892 1.000000
vt 0.119092 0.857572
vt 0.017115 0.536898
vt 0.443639 0.442899
vt 0.404492 0.536898
vt 0.335396 0.370986
vt 0.661592 0.268450
vt 0.558994 0.370988
vt 0.558994 0.165910
vt 0.751450 0.153584
vt 0.881332 0.146536
vt 0.801977 0.319609
vt 0.108244 0.442900
vt 0.000001 0.370991
vt 0.095488 0.268450
vt 0.797299 0.997247
vt 0.714222 0.863745
vt 0.860317 0.856507
vt 0.430883 0.268448
vt 0.670791 0.102540
vt 0.671855 0.280037
vt 0.223598 0.370988
vt 0.910844 0.690482
vt 0.780962 0.683434
vt 0.862040 0.536898
vt 0.662294 0.844097
vt 0.604589 1.000000
vt 0.543201 0.857572
vt 0.534961 0.543157
vt 0.614544 0.680684
vt 0.468358 0.680686
vt 0.108243 0.093999
vt 0.069096 0.000000
vt 0.207286 0.000000
vt 0.326196 0.268448
vt 0.223598 0.165910
vt 0.335396 0.102538
vt 0.337301 0.713789
vt 0.413586 0.844099
vt 0.408642 0.536899
vt 0.458402 1.000000
vt 0.991503 0.619404
vt 0.715946 0.544137
vt 0.662294 0.702798
vt 0.000000 0.165912
vt 0.738596 0.460349
vt 0.864995 0.460349
vt 0.645178 0.536898
vt 0.542681 0.000000
vt 0.443639 0.093998
vt 0.335396 0.165907
vt 0.990438 0.816935
vt 0.670791 0.082506
vt 0.948072 0.326848
vt 1.000000 0.165900
vt 0.923698 0.997247
vt 0.335396 0.434358
vt 0.207286 0.536898
vt 0.057705 1.000000
vt 0.000000 0.844097
vt 0.800254 0.000000
vt 0.946348 0.007240
vt 0.670791 0.434359
vt 0.542682 0.536898
vt 0.253651 0.536899
vn 0.102400 -0.943500 0.315100
vn 0.700200 -0.661700 0.268000
vn -0.268000 -0.943500 0.194700
vn -0.268000 -0.943500 -0.194700
vn 0.102400 -0.943500 -0.315100
vn 0.905000 -0.330400 0.268000
vn 0.024700 -0.330400 0.943500
vn -0.889700 -0.330400 0.315100
vn -0.574600 -0.330400 -0.748800
vn 0.534600 -0.330400 -0.777900
vn 0.802600 -0.125600 0.583100
vn -0.306600 -0.125600 0.943500
vn -0.992100 -0.125600 0.000000
vn -0.306600 -0.125600 -0.943500
vn 0.802600 -0.125600 -0.583100
vn 0.408900 0.661700 0.628400
vn -0.471300 0.661700 0.583100
vn -0.700200 0.661700 -0.268000
vn 0.038500 0.661700 -0.748800
vn 0.724000 0.661700 -0.194700
vn 0.268000 0.943500 -0.194700
vn 0.491100 0.794700 -0.356800
vn 0.408900 0.661700 -0.628400
vn -0.102400 0.943500 -0.315100
vn -0.187600 0.794700 -0.577300
vn -0.471300 0.661700 -0.583100
vn -0.331300 0.943500 0.000000
vn -0.607100 0.794700 0.000000
vn -0.700200 0.661700 0.268000
vn -0.102400 0.943500 0.315100
vn -0.187600 0.794700 0.577300
vn 0.038500 0.661700 0.748800
vn 0.268000 0.943500 0.194700
vn 0.491100 0.794700 0.356800
vn 0.724000 0.661700 0.194700
vn 0.889700 0.330400 -0.315100
vn 0.794700 0.187600 -0.577300
vn 0.574600 0.330400 -0.748800
vn -0.024700 0.330400 -0.943500
vn -0.303500 0.187600 -0.934200
vn -0.534600 0.330400 -0.777900
vn -0.905000 0.330400 -0.268000
vn -0.982200 0.187600 0.000000
vn -0.905000 0.330400 0.268000
vn -0.534600 0.330400 0.777900
vn -0.303500 0.187600 0.934200
vn -0.024700 0.330400 0.943500
vn 0.574600 0.330400 0.748800
vn 0.794700 0.187600 0.577300
vn 0.889700 0.330400 0.315100
vn 0.306600 0.125600 -0.943500
vn 0.303500 -0.187600 -0.934200
vn 0.024700 -0.330400 -0.943500
vn -0.802600 0.125600 -0.583100
vn -0.794700 -0.187600 -0.577300
vn -0.889700 -0.330400 -0.315100
vn -0.802600 0.125600 0.583100
vn -0.794700 -0.187600 0.577300
vn -0.574600 -0.330400 0.748800
vn 0.306600 0.125600 0.943500
vn 0.303500 -0.187600 0.934200
vn 0.534600 -0.330400 0.777900
vn 0.992100 0.125600 0.000000
vn 0.982200 -0.187600 0.000000
vn 0.905000 -0.330400 -0.268000
vn 0.471300 -0.661700 -0.583100
vn 0.187600 -0.794700 -0.577300
vn -0.038500 -0.661700 -0.748800
vn -0.408900 -0.661700 -0.628400
vn -0.491100 -0.794700 -0.356800
vn -0.724000 -0.661700 -0.194700
vn -0.724000 -0.661700 0.194700
vn -0.491100 -0.794700 0.356800
vn -0.408900 -0.661700 0.628400
vn 0.700200 -0.661700 -0.268000
vn 0.607100 -0.794700 0.000000
vn 0.331300 -0.943500 0.000000
vn -0.038500 -0.661700 0.748800
vn 0.187600 -0.794700 0.577300
vn 0.471300 -0.661700 0.583100
s off
f 43/72/81 56/73/81 55/74/81
f 44/75/82 56/73/82 58/76/82
f 43/72/83 55/74/83 60/77/83
f 43/72/84 60/77/84 62/78/84
f 43/72/85 62/78/85 59/79/85
f 44/75/86 58/76/86 65/80/86
f 45/81/87 57/82/87 67/83/87
f 46/84/88 61/85/88 69/86/88
f 47/87/89 63/88/89 71/89/89
f 48/90/90 64/91/90 73/92/90
f 44/93/91 65/94/91 68/95/91
f 45/81/92 67/83/92 70/96/92
f 46/84/93 69/86/93 72/97/93
f 47/87/94 71/89/94 74/98/94
f 48/90/95 73/92/95 66/99/95
f 49/100/96 75/101/96 80/102/96
f 50/103/97 76/104/97 82/105/97
f 51/106/98 77/107/98 83/108/98
f 52/109/99 78/110/99 84/111/99
f 53/112/100 79/113/100 81/114/100
f 81/77/101 84/115/101 54/116/101
f 81/114/102 79/113/102 84/111/102
f 79/113/103 52/109/103 84/111/103
f 84/115/104 83/108/104 54/116/104
f 84/115/105 78/117/105 83/108/105
f 78/117/106 51/106/106 83/108/106
f 83/108/107 82/105/107 54/116/107
f 83/108/108 77/107/108 82/105/108
f 77/107/109 50/103/109 82/105/109
f 82/105/110 80/118/110 54/116/110
f 82/105/111 76/104/111 80/118/111
f 76/119/112 49/100/112 80/102/112
f 80/118/113 81/77/113 54/116/113
f 80/102/114 75/101/114 81/120/114
f 75/101/115 53/121/115 81/120/115
f 66/99/116 79/113/116 53/112/116
f 66/99/117 73/92/117 79/113/117
f 73/92/118 52/109/118 79/113/118
f 74/122/119 78/110/119 52/109/119
f 74/98/120 71/89/120 78/123/120
f 71/89/121 51/124/121 78/123/121
f 72/125/122 77/107/122 51/106/122
f 72/97/123 69/86/123 77/126/123
f 69/86/124 50/127/124 77/126/124
f 70/96/125 76/128/125 50/127/125
f 70/96/126 67/83/126 76/128/126
f 67/129/127 49/100/127 76/119/127
f 68/95/128 75/101/128 49/100/128
f 68/95/129 65/94/129 75/101/129
f 65/94/130 53/121/130 75/101/130
f 73/92/131 74/122/131 52/109/131
f 73/92/132 64/91/132 74/122/132
f 64/130/133 47/87/133 74/98/133
f 71/89/134 72/131/134 51/124/134
f 71/89/135 63/88/135 72/131/135
f 63/88/136 46/132/136 72/131/136
f 69/86/137 70/96/137 50/127/137
f 69/86/138 61/85/138 70/96/138
f 61/85/139 45/81/139 70/96/139
f 67/129/140 68/95/140 49/100/140
f 67/129/141 57/133/141 68/95/141
f 57/133/142 44/93/142 68/95/142
f 65/134/143 66/99/143 53/112/143
f 65/134/144 58/135/144 66/99/144
f 58/135/145 48/90/145 66/99/145
f 59/79/146 64/136/146 48/137/146
f 59/79/147 62/78/147 64/136/147
f 62/138/148 47/87/148 64/130/148
f 62/138/149 63/88/149 47/87/149
f 62/138/150 60/139/150 63/88/150
f 60/139/151 46/132/151 63/88/151
f 60/140/152 61/85/152 46/84/152
f 60/140/153 55/141/153 61/85/153
f 55/141/154 45/81/154 61/85/154
f 58/76/155 59/79/155 48/137/155
f 58/76/156 56/73/156 59/79/156
f 56/73/157 43/72/157 59/79/157
f 55/141/158 57/82/158 45/81/158
f 55/74/159 56/73/159 57/142/159
f 56/73/160 44/75/160 57/142/160
